<mxfile host="Electron" agent="Mozilla/5.0 (Macintosh; Intel Mac OS X 10_15_7) AppleWebKit/537.36 (KHTML, like Gecko) draw.io/24.7.5 Chrome/126.0.6478.183 Electron/31.3.0 Safari/537.36" version="24.7.5">
  <diagram name="Page-1" id="VLJDBwGc8tw-kBL-8N2p">
    <mxGraphModel dx="2856" dy="3614" grid="1" gridSize="10" guides="1" tooltips="1" connect="1" arrows="1" fold="1" page="1" pageScale="1" pageWidth="827" pageHeight="1169" math="0" shadow="0">
      <root>
        <mxCell id="0" />
        <mxCell id="1" parent="0" />
        <mxCell id="x328PwAZrwwHZPL1ipOy-71" value="&lt;font style=&quot;font-size: 15px;&quot;&gt;Start&lt;/font&gt;" style="strokeWidth=1;html=1;shape=mxgraph.flowchart.start_2;whiteSpace=wrap;fontSize=15;" parent="1" vertex="1">
          <mxGeometry x="-25" y="-2260" width="60" height="60" as="geometry" />
        </mxCell>
        <mxCell id="Cy4L_7yIVipCF6p3bhCm-7" style="edgeStyle=orthogonalEdgeStyle;rounded=0;orthogonalLoop=1;jettySize=auto;html=1;entryX=0.5;entryY=0;entryDx=0;entryDy=0;" edge="1" parent="1" source="Cy4L_7yIVipCF6p3bhCm-1" target="Cy4L_7yIVipCF6p3bhCm-6">
          <mxGeometry relative="1" as="geometry" />
        </mxCell>
        <mxCell id="Cy4L_7yIVipCF6p3bhCm-1" value="&lt;font style=&quot;font-size: 15px;&quot;&gt;&lt;b&gt;Data Collection:&lt;/b&gt;&lt;/font&gt;&lt;div style=&quot;font-size: 15px;&quot;&gt;&lt;ul&gt;&lt;li&gt;Annual sustainability reports in PDF are downloaded from each company website&lt;/li&gt;&lt;li&gt;If sustainability reports are not available, corporate financial reports are considered instead&lt;/li&gt;&lt;li&gt;&lt;span style=&quot;font-family: sans-serif; font-size: 15.0909px; white-space: pre;&quot;&gt;SDG reports in PDF &lt;/span&gt;are downloaded and used as benchmark&lt;/li&gt;&lt;/ul&gt;&lt;/div&gt;" style="rounded=0;whiteSpace=wrap;html=1;align=left;" vertex="1" parent="1">
          <mxGeometry x="-330" y="-2150" width="670" height="120" as="geometry" />
        </mxCell>
        <mxCell id="Cy4L_7yIVipCF6p3bhCm-9" style="edgeStyle=orthogonalEdgeStyle;rounded=0;orthogonalLoop=1;jettySize=auto;html=1;" edge="1" parent="1" source="Cy4L_7yIVipCF6p3bhCm-6" target="Cy4L_7yIVipCF6p3bhCm-8">
          <mxGeometry relative="1" as="geometry" />
        </mxCell>
        <mxCell id="Cy4L_7yIVipCF6p3bhCm-6" value="&lt;font style=&quot;font-size: 15px;&quot;&gt;&lt;b&gt;Text Preprocessing:&lt;/b&gt;&lt;/font&gt;&lt;div style=&quot;&quot;&gt;&lt;ul style=&quot;&quot;&gt;&lt;li style=&quot;font-size: 15px;&quot;&gt;Extract blocks of text from reports&lt;/li&gt;&lt;li style=&quot;font-size: 15px;&quot;&gt;Split text into relevant sentences&lt;/li&gt;&lt;li style=&quot;&quot;&gt;&lt;font face=&quot;sans-serif&quot;&gt;&lt;span style=&quot;font-size: 15.0909px; white-space: pre;&quot;&gt;Clean text and remove special characters that are not relevant &lt;/span&gt;&lt;/font&gt;&lt;/li&gt;&lt;/ul&gt;&lt;/div&gt;" style="rounded=0;whiteSpace=wrap;html=1;align=left;" vertex="1" parent="1">
          <mxGeometry x="-230" y="-1980" width="470" height="120" as="geometry" />
        </mxCell>
        <mxCell id="Cy4L_7yIVipCF6p3bhCm-13" style="edgeStyle=orthogonalEdgeStyle;rounded=0;orthogonalLoop=1;jettySize=auto;html=1;entryX=0.5;entryY=0;entryDx=0;entryDy=0;" edge="1" parent="1" source="Cy4L_7yIVipCF6p3bhCm-8" target="Cy4L_7yIVipCF6p3bhCm-10">
          <mxGeometry relative="1" as="geometry" />
        </mxCell>
        <mxCell id="Cy4L_7yIVipCF6p3bhCm-14" style="edgeStyle=orthogonalEdgeStyle;rounded=0;orthogonalLoop=1;jettySize=auto;html=1;exitX=0.75;exitY=1;exitDx=0;exitDy=0;entryX=0.5;entryY=0;entryDx=0;entryDy=0;" edge="1" parent="1" source="Cy4L_7yIVipCF6p3bhCm-8" target="Cy4L_7yIVipCF6p3bhCm-11">
          <mxGeometry relative="1" as="geometry">
            <Array as="points">
              <mxPoint x="5" y="-1690" />
              <mxPoint x="5" y="-1652" />
              <mxPoint x="275" y="-1652" />
            </Array>
          </mxGeometry>
        </mxCell>
        <mxCell id="Cy4L_7yIVipCF6p3bhCm-8" value="&lt;font style=&quot;font-size: 15px;&quot;&gt;&lt;b&gt;Text Vectorization:&lt;/b&gt;&lt;/font&gt;&lt;div style=&quot;&quot;&gt;&lt;ul style=&quot;&quot;&gt;&lt;li style=&quot;font-size: 15px;&quot;&gt;The extracted text is split into individual sentences&lt;br&gt;&lt;/li&gt;&lt;li style=&quot;font-size: 15px;&quot;&gt;The sentences are converted into vectors using a pre-trained model&lt;/li&gt;&lt;/ul&gt;&lt;/div&gt;" style="rounded=0;whiteSpace=wrap;html=1;align=left;" vertex="1" parent="1">
          <mxGeometry x="-230" y="-1810" width="470" height="120" as="geometry" />
        </mxCell>
        <mxCell id="Cy4L_7yIVipCF6p3bhCm-15" style="edgeStyle=orthogonalEdgeStyle;rounded=0;orthogonalLoop=1;jettySize=auto;html=1;entryX=0.5;entryY=0;entryDx=0;entryDy=0;" edge="1" parent="1" source="Cy4L_7yIVipCF6p3bhCm-10" target="Cy4L_7yIVipCF6p3bhCm-12">
          <mxGeometry relative="1" as="geometry" />
        </mxCell>
        <mxCell id="Cy4L_7yIVipCF6p3bhCm-10" value="&lt;font style=&quot;font-size: 15px;&quot;&gt;&lt;b&gt;Thematic Analysis:&lt;/b&gt;&lt;/font&gt;&lt;div style=&quot;&quot;&gt;&lt;ul style=&quot;&quot;&gt;&lt;li style=&quot;font-size: 15px;&quot;&gt;Cosine similarity is used to calculate similarity score between the vectors from the sentences from corporate reports and SDG reports&amp;nbsp;&lt;br&gt;&lt;/li&gt;&lt;li style=&quot;font-size: 15px;&quot;&gt;Similarity scores are normalised between 0-100&lt;/li&gt;&lt;/ul&gt;&lt;/div&gt;" style="rounded=0;whiteSpace=wrap;html=1;align=left;" vertex="1" parent="1">
          <mxGeometry x="-500" y="-1614" width="470" height="120" as="geometry" />
        </mxCell>
        <mxCell id="Cy4L_7yIVipCF6p3bhCm-16" style="edgeStyle=orthogonalEdgeStyle;rounded=0;orthogonalLoop=1;jettySize=auto;html=1;entryX=0.5;entryY=0;entryDx=0;entryDy=0;" edge="1" parent="1" source="Cy4L_7yIVipCF6p3bhCm-11" target="Cy4L_7yIVipCF6p3bhCm-12">
          <mxGeometry relative="1" as="geometry" />
        </mxCell>
        <mxCell id="Cy4L_7yIVipCF6p3bhCm-11" value="&lt;font style=&quot;font-size: 15px;&quot;&gt;&lt;b&gt;Sentiment Analysis:&lt;/b&gt;&lt;/font&gt;&lt;div style=&quot;&quot;&gt;&lt;ul style=&quot;&quot;&gt;&lt;li style=&quot;font-size: 15px;&quot;&gt;Classification of sentiment scores is performed using a pre-trained model&lt;/li&gt;&lt;li style=&quot;font-size: 15px;&quot;&gt;&amp;nbsp;Calculate the ratio of positive and negative sentiment scores&lt;/li&gt;&lt;/ul&gt;&lt;/div&gt;" style="rounded=0;whiteSpace=wrap;html=1;align=left;" vertex="1" parent="1">
          <mxGeometry x="40" y="-1614" width="470" height="120" as="geometry" />
        </mxCell>
        <mxCell id="Cy4L_7yIVipCF6p3bhCm-12" value="&lt;font style=&quot;font-size: 15px;&quot;&gt;&lt;b&gt;Visualisation:&lt;/b&gt;&lt;/font&gt;&lt;div&gt;&lt;span style=&quot;font-size: 15px; background-color: initial;&quot;&gt;Aggregate multi-level groups&lt;/span&gt;&lt;/div&gt;" style="rounded=0;whiteSpace=wrap;html=1;align=left;" vertex="1" parent="1">
          <mxGeometry x="-100" y="-1370" width="210" height="70" as="geometry" />
        </mxCell>
        <mxCell id="x328PwAZrwwHZPL1ipOy-94" value="Pointers" parent="0" />
        <mxCell id="x328PwAZrwwHZPL1ipOy-77" style="edgeStyle=orthogonalEdgeStyle;orthogonalLoop=1;jettySize=auto;html=1;entryX=0.5;entryY=0;entryDx=0;entryDy=0;rounded=0;curved=0;jumpStyle=arc;jumpSize=15;fontSize=15;exitX=0.5;exitY=1;exitDx=0;exitDy=0;exitPerimeter=0;" parent="x328PwAZrwwHZPL1ipOy-94" source="x328PwAZrwwHZPL1ipOy-71" target="Cy4L_7yIVipCF6p3bhCm-1" edge="1">
          <mxGeometry relative="1" as="geometry">
            <mxPoint x="-35" y="-1945" as="sourcePoint" />
            <mxPoint y="-2150" as="targetPoint" />
          </mxGeometry>
        </mxCell>
        <mxCell id="x328PwAZrwwHZPL1ipOy-95" value="Shapes" style="" parent="0" />
      </root>
    </mxGraphModel>
  </diagram>
</mxfile>
